# xmcd
#
# Track frame offsets:
# 150
# 13324
# 27585
# 37978
# 51579
# 67429
# 79861
# 98059
# 111665
# 123917
# 145381
#
# Disc length: 2114 seconds
#
#
# Revision: 0
# Processed by: cddbd v1.5.2PL0 Copyright (c) Steve Scherf et al.
# Submitted via: FreeRIP 2.60 
#
DISCID=a908400b
DTITLE=Jonas Lindbäck - Det finns änglar
DYEAR=2004
DGENRE=Contemporary Christian
TTITLE0=Det finns änglar
TTITLE1=Blott en dag
TTITLE2=Du omsluter mig
TTITLE3=Mannen från Galliléen
TTITLE4=Gud jag älskar dig
TTITLE5=Jag vill leda dig
TTITLE6=Vad jag älskar dig Jesus
TTITLE7=Ej det finns en sådan vän som Jesus
TTITLE8=När dagen gått till ända
TTITLE9=Han kan bära-I din öppna-På dig min Gud
TTITLE10=Du vet väl om att du är värdefull
EXTD=
EXTT0=Jonas Lindbäck
EXTT1=Jonas Lindbäck
EXTT2=Jonas Lindbäck
EXTT3=Jonas Lindbäck
EXTT4=Jonas Lindbäck
EXTT5=Jonas Lindbäck
EXTT6=Jonas Lindbäck
EXTT7=Jonas Lindbäck
EXTT8=Jonas Lindbäck
EXTT9=Jonas Lindbäck
EXTT10=Jonas Lindbäck
PLAYORDER=
